<?xml version="1.0" encoding="UTF-8" standalone="no"?>
<svg
   xmlns:dc="http://purl.org/dc/elements/1.1/"
   xmlns:cc="http://creativecommons.org/ns#"
   xmlns:rdf="http://www.w3.org/1999/02/22-rdf-syntax-ns#"
   xmlns:svg="http://www.w3.org/2000/svg"
   xmlns="http://www.w3.org/2000/svg"
   xmlns:xlink="http://www.w3.org/1999/xlink"
   xmlns:sodipodi="http://sodipodi.sourceforge.net/DTD/sodipodi-0.dtd"
   xmlns:inkscape="http://www.inkscape.org/namespaces/inkscape"
   version="1.0"
   width="24"
   height="24"
   id="twitchFox"
   sodipodi:version="0.32"
   inkscape:version="0.91 r13725"
   sodipodi:docname="TwitchFox.svg"
   inkscape:output_extension="org.inkscape.output.svg.inkscape"
   sodipodi:modified="true"
   inkscape:export-filename=""
   inkscape:export-xdpi="240"
   inkscape:export-ydpi="240">
  <sodipodi:namedview
     inkscape:window-height="1018"
     inkscape:window-width="1920"
     inkscape:pageshadow="2"
     inkscape:pageopacity="0.0"
     guidetolerance="50"
     gridtolerance="50"
     objecttolerance="40"
     borderopacity="1.0"
     bordercolor="#666666"
     pagecolor="#ffffff"
     id="base"
     inkscape:zoom="16"
     inkscape:cx="13.645292"
     inkscape:cy="17.420342"
     inkscape:window-x="-8"
     inkscape:window-y="-8"
     inkscape:current-layer="g3365"
     showgrid="false"
     inkscape:window-maximized="1"
     showguides="true"
     inkscape:guide-bbox="true"
     inkscape:object-paths="true"
     inkscape:snap-bbox="true"
     inkscape:snap-midpoints="true"
     inkscape:snap-intersection-paths="true"
     inkscape:object-nodes="true"
     inkscape:snap-to-guides="false"
     fit-margin-top="0"
     fit-margin-left="0"
     fit-margin-right="0"
     fit-margin-bottom="0" />
  <defs
     id="defs5">
    <linearGradient
       id="WhiteTransparent">
      <stop
         style="stop-color:white;stop-opacity:1"
         offset="0"
         id="stop8" />
      <stop
         style="stop-color:white;stop-opacity:0"
         offset="1"
         id="stop10" />
    </linearGradient>
    <linearGradient
       xlink:href="#WhiteTransparent"
       id="linearGradient3153"
       gradientUnits="userSpaceOnUse"
       gradientTransform="matrix(0.633768,2.365244,-2.365244,0.633768,761.1766,-1845.476)"
       x1="682.03998"
       y1="471.38"
       x2="680.06"
       y2="472.51999" />
    <linearGradient
       xlink:href="#WhiteTransparent"
       id="linearGradient3156"
       gradientUnits="userSpaceOnUse"
       gradientTransform="matrix(-2.365244,-0.633768,-0.633768,2.365244,1975.966,-632.1011)"
       x1="681.71997"
       y1="471.57001"
       x2="676.89001"
       y2="474.35001" />
    <linearGradient
       inkscape:collect="always"
       xlink:href="#WhiteTransparent"
       id="linearGradient2563"
       gradientUnits="userSpaceOnUse"
       gradientTransform="matrix(2.120622,1.224339,-1.224339,2.120622,-793.7969,-1778.614)"
       x1="682.03998"
       y1="471.38"
       x2="680.06"
       y2="472.51999" />
    <linearGradient
       inkscape:collect="always"
       xlink:href="#WhiteTransparent"
       id="linearGradient2566"
       gradientUnits="userSpaceOnUse"
       gradientTransform="matrix(-2.120622,1.224339,1.224339,2.120622,923.1751,-1779.614)"
       x1="681.71997"
       y1="471.57001"
       x2="676.89001"
       y2="474.35001" />
  </defs>
  <g
     id="g3365">
    <path
       sodipodi:nodetypes="ccccccccc"
       inkscape:connector-curvature="0"
       id="path3362"
       d="m 11.86708,19.43 -4.79708,3 0,-3 -5.002,0 L 2.068,8e-7 23.5,8e-7 23.5,15 19.053632,19.43 Z"
       style="fill:#ffffff" />
    <path
       inkscape:connector-curvature="0"
       style="clip-rule:evenodd;fill:#6441a5;fill-opacity:1;fill-rule:evenodd"
       id="path13"
       d="m 17.5,6 -2,0 0,6 2,0 0,-6 z M 2.068,0 0.5,4 l 0,17 5,0 0,3 3.886,0 3.114,-3 5,0 6,-6 0,-15 -21.432,0 z m 19.432,13 -4,4 -6,0 -3,3 0,-3 -4,0 0,-15 17,0 0,11 z m -9,-7 -2,0 0,6 2,0 0,-6 z" />
    <path
       sodipodi:nodetypes="cccccccccccccccccccc"
       style="clip-rule:evenodd;fill:#f3703e;fill-opacity:1;fill-rule:evenodd"
       id="path13-2"
       d="M 2.068,8e-7 2.068,4 l 0,15.43 5.002,0 0,3 1.682884,0 3.114196,-3 7.186552,0 L 23.5,15 23.5,8e-7 Z M 21.5,13 l -4,4 -5.999999,0 -3,3 0,-3 -4.0000008,0 0,-14.9999992 16.9999998,0 z"
       inkscape:connector-curvature="0" />
  </g>
</svg>
